<svg width="16" height="19" viewBox="0 0 16 19" fill="none" xmlns="http://www.w3.org/2000/svg">
<path d="M1 7.63189C1 12.2796 5.24448 16.1231 7.12319 17.5967L7.12392 17.5973C7.39332 17.8086 7.52806 17.9143 7.72885 17.9684C7.88505 18.0105 8.1148 18.0105 8.271 17.9684C8.47197 17.9142 8.60707 17.8084 8.87695 17.5967C10.7557 16.1231 15 12.2796 15 7.63186C15 5.87298 14.2625 4.18615 12.9497 2.94243C11.637 1.69871 9.85656 1 8.00004 1C6.14353 1 4.36301 1.6987 3.05025 2.94242C1.7375 4.18613 1 5.87301 1 7.63189Z" stroke="#67666B" stroke-width="2" stroke-linecap="round" stroke-linejoin="round"/>
</svg>
