<svg width="101" height="56" viewBox="0 0 101 56" fill="none" xmlns="http://www.w3.org/2000/svg">
<path d="M73.1667 12.3069C73.1667 11.9657 73.2844 11.6721 73.5198 11.4261C73.763 11.1802 74.0533 11.0572 74.3907 11.0572C74.7281 11.0572 75.0145 11.1802 75.2498 11.4261C75.4852 11.6721 75.6029 11.9657 75.6029 12.3069C75.6029 12.656 75.4852 12.9536 75.2498 13.1996C75.0145 13.4456 74.7281 13.5685 74.3907 13.5685C74.0533 13.5685 73.763 13.4456 73.5198 13.1996C73.2844 12.9536 73.1667 12.656 73.1667 12.3069ZM75.4381 17.282V24.0782C75.4381 25.1177 75.4538 25.7723 75.4852 26.0421C75.5166 26.3119 75.6304 26.5182 75.8265 26.661C76.0226 26.8038 76.3718 26.8752 76.8739 26.8752H77.1211V27.4227H71.931V26.8752H72.3312C72.8882 26.8752 73.2491 26.7959 73.4139 26.6372C73.5865 26.4706 73.6846 26.2762 73.7081 26.054C73.7395 25.8239 73.7552 25.1653 73.7552 24.0782V21.1265C73.7552 19.9838 73.7003 19.2856 73.5904 19.0317C73.4884 18.7778 73.3472 18.6191 73.1667 18.5556C72.9941 18.4921 72.6881 18.4604 72.2488 18.4604H71.931V17.9129C73.3276 17.77 74.4103 17.5598 75.1792 17.282H75.4381Z" fill="black"/>
<path d="M80.8989 17.282H81.2166C81.3971 17.774 81.4991 18.4445 81.5226 19.2935C82.0875 18.6191 82.6799 18.1152 83.2997 17.7819C83.9195 17.4487 84.5668 17.282 85.2416 17.282C86.0105 17.282 86.6381 17.4447 87.1246 17.77C87.6189 18.0954 87.9366 18.4961 88.0778 18.9722C88.2191 19.4403 88.2897 20.1267 88.2897 21.0312V24.0782C88.2897 25.205 88.3093 25.8913 88.3485 26.1373C88.3877 26.3833 88.5094 26.5697 88.7134 26.6967C88.9252 26.8157 89.3096 26.8752 89.8667 26.8752V27.4227H84.9356V26.8752H85.1592C85.7241 26.8752 86.0928 26.7919 86.2654 26.6253C86.438 26.4587 86.5361 26.2643 86.5597 26.0421C86.5832 25.8199 86.595 25.1653 86.595 24.0782V20.936C86.595 20.1663 86.5557 19.6188 86.4773 19.2935C86.4067 18.9603 86.2066 18.6667 85.8771 18.4128C85.5554 18.1588 85.1435 18.0319 84.6413 18.0319C84.0686 18.0319 83.5194 18.2064 82.9937 18.5556C82.4759 18.8968 81.9855 19.4125 81.5226 20.1029V24.0782C81.5226 25.205 81.5422 25.8913 81.5815 26.1373C81.6285 26.3833 81.7541 26.5697 81.9581 26.6967C82.1699 26.8157 82.5583 26.8752 83.1232 26.8752V27.4227H78.2509V26.8752C78.7922 26.8752 79.1688 26.8197 79.3807 26.7086C79.5925 26.5975 79.722 26.4309 79.7691 26.2087C79.824 25.9786 79.8514 25.2684 79.8514 24.0782V21.1741C79.8514 20.0394 79.8279 19.353 79.7808 19.115C79.7416 18.869 79.6161 18.6865 79.4042 18.5675C79.2002 18.4405 78.8158 18.377 78.2509 18.377V17.8295C79.1139 17.7343 79.9966 17.5518 80.8989 17.282Z" fill="black"/>
<path d="M100.011 20.9717H93.2914C93.26 21.4399 93.2444 21.789 93.2444 22.0191C93.2444 23.733 93.5072 25.0225 94.0329 25.8874C94.5664 26.7443 95.3588 27.1728 96.4102 27.1728C97.8381 27.1728 98.8502 26.5261 99.4465 25.2327H100.011C99.7604 26.0421 99.2621 26.6769 98.5168 27.1371C97.7714 27.5894 96.9594 27.8155 96.0806 27.8155C95.2647 27.8155 94.4918 27.6092 93.7622 27.1966C93.0404 26.7761 92.448 26.1849 91.9851 25.4232C91.5222 24.6614 91.2907 23.737 91.2907 22.6499C91.2907 21.1106 91.7379 19.8331 92.6324 18.8174C93.5268 17.7938 94.6448 17.282 95.9865 17.282C97.2497 17.282 98.2265 17.6708 98.9169 18.4485C99.6074 19.2261 99.9722 20.0672 100.011 20.9717ZM97.9519 20.4956C97.9754 20.3131 97.9872 20.1505 97.9872 20.0077C97.9872 19.3094 97.7832 18.7698 97.3752 18.3889C96.9751 18.0001 96.4808 17.8057 95.8923 17.8057C94.4644 17.8057 93.6131 18.7024 93.3385 20.4956H97.9519Z" fill="black"/>
<path d="M26.635 54.8455H24.5499L8.81107 12.2494C8.51961 11.4854 8.06 10.1683 7.43224 8.29795C6.55786 5.76905 5.63864 4.06995 4.67458 3.20064C3.71052 2.33133 2.15232 1.87033 0 1.81765V0H19.6399V1.81765C17.1962 1.81765 15.5483 2.02839 14.6963 2.44987C13.8668 2.87135 13.452 3.67481 13.452 4.86023C13.452 5.62416 13.9789 7.41547 15.0326 10.2341L28.1484 45.7968L38.6746 16.2008C40.4457 11.2483 41.3313 8.02135 41.3313 6.51982C41.3313 3.49041 39.5041 1.92302 35.8496 1.81765V0H49.7725V1.81765C48.36 1.87033 47.1157 2.46304 46.0395 3.59578C44.9634 4.72851 44.0329 6.3881 43.2482 8.57455L40.1879 16.991L26.635 54.8455Z" fill="black"/>
<path d="M51.4298 54.8455H49.3447L33.6058 12.2494C33.3144 11.4854 32.8548 10.1683 32.227 8.29795C31.3526 5.76905 30.4334 4.06995 29.4693 3.20064C28.5053 2.33133 26.9471 1.87033 24.7948 1.81765V0H44.4347V1.81765C41.9909 1.81765 40.3431 2.02839 39.4911 2.44987C38.6616 2.87135 38.2468 3.67481 38.2468 4.86023C38.2468 5.62416 38.7737 7.41547 39.8274 10.2341L52.9431 45.7968L63.4693 16.2008C65.2405 11.2483 66.1261 8.02135 66.1261 6.51982C66.1261 3.49041 64.2989 1.92302 60.6444 1.81765V0H74.5672V1.81765C73.1548 1.87033 71.9105 2.46304 70.8343 3.59578C69.7581 4.72851 68.8277 6.3881 68.043 8.57455L64.9827 16.991L51.4298 54.8455Z" fill="black"/>
<path d="M63.4104 50.7154C63.4104 49.2237 63.9047 47.9779 64.8933 46.9781C65.8819 45.9704 67.098 45.4665 68.5416 45.4665C69.9931 45.4665 71.2131 45.9704 72.2017 46.9781C73.1903 47.9858 73.6846 49.2316 73.6846 50.7154C73.6846 52.3579 73.1824 53.6513 72.1782 54.5955C71.1739 55.5318 69.9617 56 68.5416 56C67.1215 56 65.9093 55.5239 64.905 54.5717C63.9086 53.6116 63.4104 52.3262 63.4104 50.7154ZM65.364 50.7749C65.364 52.5047 65.6425 53.7187 66.1996 54.417C66.7567 55.1073 67.5373 55.4525 68.5416 55.4525C69.5694 55.4525 70.354 55.1073 70.8954 54.417C71.4446 53.7187 71.7192 52.5047 71.7192 50.7749C71.7192 49.061 71.4485 47.839 70.9071 47.109C70.3658 46.379 69.5773 46.014 68.5416 46.014C67.5138 46.014 66.7253 46.379 66.1761 47.109C65.6347 47.8311 65.364 49.0531 65.364 50.7749Z" fill="black"/>
<path d="M78.5804 47.9541C78.8472 47.2479 79.2787 46.6567 79.875 46.1807C80.4791 45.7046 81.0676 45.4665 81.6403 45.4665C82.1581 45.4665 82.5661 45.6292 82.8643 45.9545C83.1624 46.2798 83.3115 46.6131 83.3115 46.9543C83.3115 47.1844 83.233 47.3828 83.0761 47.5494C82.927 47.716 82.7426 47.7994 82.523 47.7994C82.1307 47.7994 81.8325 47.5058 81.6285 46.9186C81.4873 46.5219 81.2755 46.3235 80.993 46.3235C80.6556 46.3235 80.2516 46.5576 79.7808 47.0257C79.3101 47.4859 79.008 47.966 78.8746 48.4659C78.7412 48.9658 78.6746 49.6521 78.6746 50.525V52.2627C78.6746 53.3022 78.6863 53.9568 78.7099 54.2266C78.7412 54.4964 78.855 54.7027 79.0512 54.8455C79.2473 54.9883 79.5964 55.0597 80.0986 55.0597H80.4281V55.6072H75.3087V55.0597H75.5558C76.0266 55.0597 76.36 54.9962 76.5562 54.8693C76.7602 54.7344 76.8818 54.5479 76.921 54.3099C76.9602 54.0718 76.9798 53.3894 76.9798 52.2627V49.5133C76.9798 48.4659 76.9641 47.8113 76.9328 47.5494C76.9092 47.2796 76.7994 47.0733 76.6032 46.9305C76.4071 46.7797 76.058 46.7044 75.5558 46.7044H75.3087V46.1688C76.0462 46.0815 77.0112 45.8474 78.2038 45.4665C78.4313 46.0934 78.5569 46.9226 78.5804 47.9541Z" fill="black"/>
<path d="M86.5714 39.2417V52.2627C86.5714 53.3022 86.5832 53.9568 86.6067 54.2266C86.6381 54.4964 86.7519 54.7027 86.948 54.8455C87.1442 54.9883 87.4933 55.0597 87.9955 55.0597H88.2779V55.6072H83.1232V55.0597H83.4527C83.9234 55.0597 84.2569 54.9962 84.453 54.8693C84.657 54.7344 84.7786 54.5479 84.8179 54.3099C84.8571 54.0718 84.8767 53.3894 84.8767 52.2627V42.6219C84.8767 41.5983 84.7865 40.9556 84.606 40.6937C84.4256 40.4239 83.9862 40.2891 83.2879 40.2891V39.7416C83.7665 39.7416 84.3275 39.686 84.9709 39.5749C85.6221 39.4638 86.0693 39.3527 86.3125 39.2417H86.5714Z" fill="black"/>
<path d="M97.7165 46.8948V43.0861C97.7165 42.0466 97.7008 41.392 97.6694 41.1222C97.6459 40.8524 97.536 40.6461 97.3399 40.5033C97.1438 40.3605 96.7946 40.2891 96.2925 40.2891H96.0453V39.7416C96.9947 39.7177 98.0343 39.5511 99.1641 39.2417H99.4112V52.346C99.4112 53.4807 99.4308 54.171 99.4701 54.417C99.5093 54.663 99.6309 54.8455 99.8349 54.9645C100.047 55.0835 100.435 55.143 101 55.143V55.6905C99.8624 55.7143 98.8502 55.8175 97.9636 56C97.8695 55.6271 97.8224 55.0399 97.8224 54.2385C97.2418 54.8256 96.6416 55.266 96.0218 55.5596C95.4098 55.8532 94.7743 56 94.1152 56C92.8678 56 91.7889 55.4922 90.8788 54.4765C89.9765 53.4609 89.5254 52.231 89.5254 50.7868C89.5254 49.1999 89.9883 47.9184 90.9141 46.9424C91.8399 45.9585 92.9423 45.4665 94.2212 45.4665C94.8724 45.4665 95.4883 45.5855 96.0689 45.8236C96.6495 46.0616 97.1987 46.4187 97.7165 46.8948ZM97.7165 47.5851C97.1987 47.1328 96.6769 46.7956 96.1513 46.5734C95.6334 46.3433 95.1117 46.2283 94.586 46.2283C93.6994 46.2283 92.958 46.5734 92.3617 47.2638C91.7732 47.9541 91.479 49.0808 91.479 50.644C91.479 52.231 91.7811 53.4013 92.3852 54.1552C92.9972 54.909 93.7504 55.2859 94.6448 55.2859C95.2411 55.2859 95.7943 55.143 96.3042 54.8574C96.8142 54.5717 97.285 54.1433 97.7165 53.5719V47.5851Z" fill="black"/>
</svg>
