<svg width="18" height="20" viewBox="0 0 18 20" fill="none" xmlns="http://www.w3.org/2000/svg">
<path d="M1 15.8V10.2C1 9.07985 1 8.51986 1.21799 8.09204C1.40973 7.71572 1.71547 7.40973 2.0918 7.21799C2.51962 7 3.08009 7 4.2002 7H13.8002C14.9203 7 15.48 7 15.9078 7.21799C16.2841 7.40973 16.5905 7.71572 16.7822 8.09204C17.0002 8.51986 17 9.07985 17 10.2V15.8C17 16.9201 17.0002 17.4802 16.7822 17.908C16.5905 18.2844 16.2841 18.5902 15.9078 18.782C15.48 19 14.9203 19 13.8002 19H4.2002C3.08009 19 2.51962 19 2.0918 18.782C1.71547 18.5902 1.40973 18.2844 1.21799 17.908C1 17.4802 1 16.9201 1 15.8ZM6 6.76923V4C6 2.34315 7.34315 1 9 1C10.6569 1 12 2.34315 12 4V6.76923C12 6.89668 11.8964 7 11.7689 7H6.23047C6.10302 7 6 6.89668 6 6.76923Z" stroke="white" stroke-width="2" stroke-linecap="round" stroke-linejoin="round"/>
</svg>
